<svg width="25" height="25" viewBox="0 0 25 25" fill="none" xmlns="http://www.w3.org/2000/svg">
<path d="M15.8239 3.56174L16.958 4.34178C17.088 4.43124 17.1848 4.55739 17.2345 4.70213C17.2841 4.84687 17.2841 5.00278 17.2344 5.14751L16.8015 6.40969C16.7519 6.55442 16.7519 6.71031 16.8016 6.85503C16.8512 6.99976 16.948 7.12587 17.0781 7.21532C17.2081 7.30476 17.3647 7.35294 17.5255 7.35294C17.6862 7.35295 17.8428 7.30478 17.9729 7.21535L19.1071 6.43531C19.2371 6.34585 19.3937 6.29767 19.5545 6.29767C19.7152 6.29767 19.8718 6.34585 20.0019 6.43531L21.1361 7.21535C21.2661 7.30478 21.4227 7.35295 21.5835 7.35294C21.7442 7.35294 21.9008 7.30476 22.0309 7.21532C22.1609 7.12587 22.2577 6.99976 22.3074 6.85503C22.3571 6.71031 22.3571 6.55442 22.3074 6.40969L21.8741 5.14751C21.8244 5.00278 21.8244 4.84687 21.874 4.70213C21.9237 4.55739 22.0205 4.43125 22.1505 4.34178L23.2846 3.56174C23.4146 3.47228 23.5114 3.34615 23.5611 3.20141C23.6108 3.05667 23.6108 2.90076 23.5611 2.75603C23.5114 2.61129 23.4146 2.48516 23.2846 2.39571C23.1545 2.30626 22.9979 2.25809 22.8371 2.25809H21.4356C21.2749 2.25807 21.1182 2.20989 20.9882 2.12044C20.8581 2.03099 20.7613 1.90487 20.7116 1.76014L20.2783 0.497968C20.2286 0.353229 20.1318 0.227092 20.0018 0.137636C19.8717 0.0481808 19.7151 0 19.5544 0C19.3936 0 19.237 0.0481808 19.1069 0.137636C18.9769 0.227092 18.8801 0.353229 18.8304 0.497968L18.3972 1.76014C18.3475 1.9049 18.2507 2.03104 18.1206 2.1205C17.9905 2.20995 17.8338 2.25812 17.673 2.25809H16.2714C16.1106 2.25809 15.954 2.30626 15.8239 2.39571C15.6939 2.48516 15.5971 2.61129 15.5474 2.75603C15.4977 2.90076 15.4977 3.05667 15.5474 3.20141C15.5971 3.34615 15.6939 3.47228 15.8239 3.56174Z" fill="white"/>
<path d="M14.4363 14.3327C14.3069 14.2752 14.1967 14.1796 14.1192 14.058C14.0418 13.9363 14.0005 13.7938 14.0006 13.6481C13.9997 13.5441 14.0194 13.4409 14.0587 13.345C14.0979 13.2492 14.1558 13.1627 14.2288 13.091C14.2733 13.0471 14.3159 13.0039 14.3478 12.9691C14.5734 12.7234 14.7726 12.4529 14.9416 12.1626C15.3861 11.3955 15.6064 10.5117 15.576 9.61795C15.5456 8.72418 15.2658 7.85861 14.7703 7.12567C14.2747 6.39273 13.5847 5.82374 12.7834 5.48735C11.9821 5.15096 11.1038 5.06155 10.2545 5.22991C9.38898 5.38664 8.5891 5.80905 7.95886 6.44221C7.32862 7.07537 6.89717 7.88999 6.72062 8.78013C6.55745 9.54659 6.58522 10.3433 6.80132 11.0957C7.01743 11.848 7.41479 12.5312 7.95613 13.0812C8.02957 13.1533 8.08837 13.2397 8.12907 13.3356C8.16977 13.4314 8.19156 13.5347 8.19315 13.6393V13.6432C8.19446 13.7901 8.15381 13.9341 8.07629 14.0571C7.99877 14.1802 7.88783 14.2769 7.7574 14.335C5.97212 15.0998 4.54845 16.5587 3.7927 18.3978C3.2614 19.6574 2.99488 21.0193 3.01081 22.3934V23.3835C3.01081 23.5958 3.05125 23.806 3.12984 24.0022C3.20843 24.1984 3.32362 24.3766 3.46882 24.5267C3.61403 24.6768 3.78641 24.7959 3.97612 24.8771C4.16583 24.9583 4.36915 25.0001 4.57447 25H17.623C18.0375 25 18.4351 24.8297 18.7282 24.5265C19.0213 24.2234 19.1859 23.8123 19.1859 23.3836V22.3835C19.2018 21.01 18.9348 19.6487 18.4028 18.3901C17.6456 16.5525 16.2214 15.0956 14.4363 14.3327Z" fill="white"/>
</svg>
