<svg width="30" height="30" viewBox="0 0 30 30" fill="none" xmlns="http://www.w3.org/2000/svg">
<path d="M10.4455 6.26395L11.8301 7.26994C11.9888 7.38532 12.107 7.548 12.1676 7.73467C12.2282 7.92134 12.2282 8.12241 12.1676 8.30906L11.639 9.93684C11.5784 10.1235 11.5784 10.3246 11.6391 10.5112C11.6998 10.6978 11.8179 10.8605 11.9767 10.9758C12.1355 11.0912 12.3267 11.1533 12.5229 11.1533C12.7192 11.1533 12.9104 11.0912 13.0692 10.9759L14.4539 9.96989C14.6127 9.85452 14.8039 9.79238 15.0002 9.79238C15.1964 9.79238 15.3876 9.85452 15.5464 9.96989L16.9311 10.9759C17.0899 11.0912 17.2811 11.1533 17.4774 11.1533C17.6736 11.1533 17.8649 11.0912 18.0236 10.9758C18.1824 10.8605 18.3006 10.6978 18.3612 10.5112C18.4219 10.3246 18.4219 10.1235 18.3613 9.93684L17.8322 8.30906C17.7715 8.12241 17.7715 7.92134 17.8321 7.73467C17.8927 7.54801 18.0109 7.38532 18.1697 7.26994L19.5543 6.26395C19.7131 6.14859 19.8313 5.98591 19.8919 5.79925C19.9526 5.61259 19.9526 5.41152 19.8919 5.22486C19.8312 5.0382 19.713 4.87553 19.5543 4.76017C19.3955 4.64481 19.2042 4.58268 19.008 4.58269H17.2969C17.1006 4.58266 16.9094 4.52052 16.7506 4.40516C16.5918 4.2898 16.4736 4.12715 16.4129 3.9405L15.8839 2.31272C15.8233 2.12605 15.7051 1.96338 15.5463 1.84801C15.3875 1.73264 15.1963 1.67051 15 1.67051C14.8038 1.67051 14.6125 1.73264 14.4537 1.84801C14.295 1.96338 14.1768 2.12605 14.1161 2.31272L13.5872 3.9405C13.5265 4.12719 13.4083 4.28987 13.2495 4.40524C13.0907 4.5206 12.8994 4.58272 12.7031 4.58269H10.9918C10.7955 4.58268 10.6043 4.64481 10.4455 4.76017C10.2867 4.87553 10.1685 5.0382 10.1079 5.22486C10.0472 5.41152 10.0472 5.61259 10.1079 5.79925C10.1685 5.98591 10.2867 6.14859 10.4455 6.26395Z" fill="white"/>
<path d="M17.5493 20.69C17.4504 20.6475 17.3662 20.5769 17.3071 20.4871C17.2479 20.3972 17.2164 20.292 17.2165 20.1844C17.2157 20.1075 17.2309 20.0313 17.2608 19.9605C17.2908 19.8897 17.335 19.8258 17.3907 19.7729C17.4247 19.7405 17.4572 19.7085 17.4816 19.6829C17.654 19.5014 17.8061 19.3017 17.9351 19.0872C18.2746 18.5206 18.4429 17.8679 18.4197 17.2078C18.3965 16.5477 18.1828 15.9085 17.8043 15.3671C17.4258 14.8258 16.8988 14.4056 16.2868 14.1572C15.6748 13.9087 15.004 13.8427 14.3553 13.967C13.6942 14.0828 13.0833 14.3947 12.602 14.8624C12.1206 15.33 11.7911 15.9316 11.6562 16.5891C11.5316 17.1551 11.5528 17.7436 11.7179 18.2992C11.8829 18.8549 12.1864 19.3595 12.5999 19.7657C12.656 19.8189 12.7009 19.8827 12.732 19.9535C12.763 20.0243 12.7797 20.1006 12.7809 20.1779V20.1807C12.7819 20.2892 12.7509 20.3955 12.6916 20.4864C12.6324 20.5773 12.5477 20.6487 12.4481 20.6917C11.0845 21.2565 9.99719 22.334 9.41997 23.6923C9.01417 24.6226 8.81062 25.6284 8.82278 26.6432V27.3745C8.82278 27.5313 8.85367 27.6866 8.9137 27.8315C8.97372 27.9763 9.0617 28.108 9.1726 28.2188C9.2835 28.3297 9.41516 28.4176 9.56006 28.4776C9.70495 28.5376 9.86024 28.5684 10.0171 28.5684H19.9832C20.2998 28.5684 20.6034 28.4426 20.8272 28.2187C21.0511 27.9948 21.1769 27.6912 21.1769 27.3746V26.636C21.189 25.6215 20.9851 24.6161 20.5787 23.6866C20.0004 22.3294 18.9126 21.2534 17.5493 20.69Z" fill="white"/>
<path d="M28.5384 22.0376C27.9602 20.6805 26.8726 19.6045 25.5093 19.041C25.4105 18.9985 25.3263 18.9279 25.2672 18.838C25.2081 18.7482 25.1765 18.643 25.1765 18.5354C25.1758 18.4585 25.1909 18.3823 25.2209 18.3115C25.2509 18.2407 25.2951 18.1768 25.3508 18.1238C25.3848 18.0914 25.4174 18.0595 25.4417 18.0338C25.6141 17.8525 25.7662 17.6528 25.8952 17.4385C26.2348 16.8719 26.4031 16.2192 26.38 15.5591C26.3568 14.899 26.143 14.2597 25.7646 13.7183C25.3861 13.177 24.8591 12.7568 24.247 12.5083C23.635 12.2599 22.9642 12.1939 22.3155 12.3182C21.6544 12.4339 21.0435 12.7459 20.5621 13.2135C20.0807 13.6812 19.7512 14.2828 19.6164 14.9403C19.4918 15.5063 19.513 16.0948 19.678 16.6504C19.8431 17.2061 20.1465 17.7107 20.56 18.1169C20.6161 18.1701 20.661 18.2339 20.6921 18.3047C20.7232 18.3755 20.7398 18.4517 20.741 18.529V18.532C20.742 18.6405 20.711 18.7468 20.6518 18.8377C20.5926 18.9286 20.5078 19 20.4082 19.0429C19.8636 19.266 19.358 19.5743 18.9104 19.9564C20.1663 20.701 21.154 21.8244 21.7317 23.1654C22.2138 24.2584 22.4561 25.442 22.4424 26.6365V26.9198H27.9429C28.2595 26.9198 28.5631 26.794 28.787 26.5701C29.0109 26.3463 29.1367 26.0426 29.1367 25.726V24.987C29.1488 23.9725 28.9449 22.9671 28.5384 22.0376Z" fill="white"/>
<path d="M11.0906 19.956C10.642 19.5731 10.1353 19.2642 9.58935 19.041C9.49054 18.9985 9.40636 18.9279 9.34721 18.838C9.28807 18.7482 9.25654 18.643 9.25653 18.5354C9.25585 18.4585 9.27098 18.3823 9.30098 18.3115C9.33099 18.2407 9.37523 18.1768 9.43096 18.1238C9.4648 18.0914 9.49742 18.0595 9.5218 18.0338C9.69413 17.8524 9.84617 17.6528 9.97522 17.4385C10.3148 16.8719 10.4831 16.2192 10.46 15.5591C10.4368 14.899 10.2231 14.2597 9.84461 13.7183C9.46615 13.177 8.9391 12.7567 8.32708 12.5083C7.71506 12.2599 7.04422 12.1939 6.39552 12.3182C5.73446 12.434 5.12352 12.7459 4.64214 13.2136C4.16077 13.6812 3.83124 14.2828 3.69641 14.9403C3.57181 15.5064 3.59302 16.0948 3.75807 16.6504C3.92311 17.206 4.22658 17.7107 4.64 18.1169C4.69613 18.1701 4.74106 18.2339 4.77215 18.3047C4.80323 18.3755 4.81986 18.4517 4.82103 18.529V18.532C4.82206 18.6405 4.79102 18.7468 4.73181 18.8377C4.6726 18.9286 4.58786 19 4.48822 19.0429C3.12469 19.6078 2.03735 20.6852 1.4601 22.0435C1.05428 22.9738 0.850696 23.9796 0.862816 24.9945V25.726C0.86281 25.8828 0.893682 26.038 0.95367 26.1829C1.01366 26.3277 1.10159 26.4593 1.21243 26.5701C1.32328 26.681 1.45488 26.7689 1.59971 26.8289C1.74454 26.8889 1.89977 26.9198 2.05653 26.9198H7.5575V26.6435C7.54383 25.4491 7.78559 24.2655 8.26658 23.172C8.8438 21.8282 9.83258 20.7021 11.0906 19.956Z" fill="white"/>
</svg>
