<svg width="35" height="35" viewBox="0 0 35 35" fill="none" xmlns="http://www.w3.org/2000/svg">
<g clip-path="url(#clip0_150:732)">
<path d="M12.4671 16.7949L10.3524 20.385C9.9317 21.0992 9.2446 21.6169 8.4422 21.8244C7.63979 22.032 6.78782 21.9122 6.0737 21.4916L4.27864 20.4342C4.0406 20.294 3.86801 20.0649 3.79884 19.7975C3.72967 19.53 3.76958 19.246 3.9098 19.008L6.55322 14.5203C6.83366 14.0442 7.29172 13.6991 7.82666 13.5607C8.36159 13.4224 8.92958 13.5022 9.40566 13.7826L12.0982 15.3687C12.3363 15.5089 12.5089 15.7379 12.5781 16.0054C12.6472 16.2729 12.6073 16.5569 12.4671 16.7949Z" fill="white"/>
<path d="M24.5038 25.094L21.8604 29.5817C21.7202 29.8197 21.4912 29.9923 21.2237 30.0615C20.9562 30.1307 20.6722 30.0908 20.4342 29.9505L18.6391 28.8932C17.925 28.4725 17.4072 27.7854 17.1997 26.983C16.9922 26.1806 17.1119 25.3286 17.5326 24.6145L19.6473 21.0244C19.7876 20.7864 20.0166 20.6138 20.2841 20.5446C20.5515 20.4754 20.8355 20.5153 21.0736 20.6556L23.7661 22.2416C24.2422 22.522 24.5874 22.9801 24.7257 23.515C24.8641 24.05 24.7843 24.618 24.5038 25.094Z" fill="white"/>
<path d="M24.8235 20.4465L23.0285 19.3892L24.0858 17.5941C24.7602 16.3161 24.9013 14.8231 24.4784 13.4414C24.0555 12.0597 23.1029 10.9015 21.8288 10.2198L20.8594 9.64886C19.6456 8.86491 18.1707 8.59326 16.7572 8.89325C15.3437 9.19324 14.1063 10.0405 13.3155 11.2499L12.2581 13.0449L10.4631 11.9876L11.5204 10.1925C12.592 8.50731 14.2874 7.31514 16.2358 6.87685C18.1841 6.43856 20.2268 6.78982 21.9168 7.8538L22.8861 8.42478C24.636 9.38707 25.9336 11.0033 26.4948 12.9199C27.056 14.8364 26.8353 16.8973 25.8809 18.6515L24.8235 20.4465Z" fill="white"/>
</g>
<defs>
<clipPath id="clip0_150:732">
<rect width="25" height="25" fill="white" transform="translate(12.6885) rotate(30.5)"/>
</clipPath>
</defs>
</svg>
