<svg width="302" height="270" viewBox="0 0 302 270" fill="none" xmlns="http://www.w3.org/2000/svg">
<g clip-path="url(#clip0_345:2)">
<circle cx="143" cy="135" r="135" fill="url(#paint0_linear_345:2)"/>
<g filter="url(#filter0_d_345:2)">
<rect x="50" y="54" width="207" height="163" rx="15" fill="white"/>
</g>
<g filter="url(#filter1_d_345:2)">
<rect x="34" y="223" width="238" height="11" rx="5.5" fill="white"/>
</g>
<rect x="60" y="62" width="187" height="147" rx="6" fill="#0B161F"/>
<rect x="68" y="137" width="36" height="6" rx="3" fill="#049289"/>
<rect x="208" y="81" width="34" height="4" rx="2" fill="#049289"/>
<rect x="208" y="120" width="34" height="4" rx="2" fill="#049289"/>
<rect x="208" y="88" width="34" height="4" rx="2" fill="white"/>
<rect x="208" y="127" width="34" height="4" rx="2" fill="white"/>
<rect x="208" y="95" width="34" height="4" rx="2" fill="white"/>
<rect x="208" y="134" width="34" height="4" rx="2" fill="white"/>
<rect x="208" y="102" width="34" height="4" rx="2" fill="white"/>
<rect x="208" y="141" width="34" height="4" rx="2" fill="white"/>
<rect x="68" y="148" width="55" height="6" rx="3" fill="#F8FFFF"/>
<rect x="68" y="170" width="55" height="6" rx="3" fill="#F8FFFF"/>
<rect x="68" y="159" width="82" height="6" rx="3" fill="#F8FFFF"/>
<rect x="202" y="205" width="138" height="1" rx="0.5" transform="rotate(-90 202 205)" fill="#049289"/>
<path d="M144.491 101.376L124.916 89.725C124.677 89.5844 124.43 89.5 124.149 89.5C123.383 89.5 122.757 90.1328 122.757 90.9062H122.75V115.094H122.757C122.757 115.867 123.383 116.5 124.149 116.5C124.438 116.5 124.677 116.402 124.937 116.261L144.491 104.624C144.955 104.238 145.25 103.654 145.25 103C145.25 102.346 144.955 101.77 144.491 101.376Z" fill="#049289"/>
<g filter="url(#filter2_d_345:2)">
<rect x="222" y="89" width="80" height="112" rx="6" fill="white"/>
<rect x="222.5" y="89.5" width="79" height="111" rx="5.5" stroke="#BCC3D1"/>
</g>
<rect x="231" y="100" width="62" height="92" rx="6" fill="#0B161F"/>
<path d="M268.217 122.704L256.617 115.8C256.475 115.717 256.329 115.667 256.163 115.667C255.708 115.667 255.338 116.042 255.338 116.5H255.333V130.833H255.338C255.338 131.292 255.708 131.667 256.163 131.667C256.333 131.667 256.475 131.608 256.629 131.525L268.217 124.629C268.492 124.4 268.667 124.054 268.667 123.667C268.667 123.279 268.492 122.937 268.217 122.704Z" fill="#049289"/>
<rect x="238" y="149" width="31" height="4" rx="2" fill="#049289"/>
<rect x="238" y="157" width="21" height="4" rx="2" fill="white"/>
<rect x="238" y="173" width="31" height="4" rx="2" fill="white"/>
<rect x="238" y="165" width="37" height="4" rx="2" fill="white"/>
<circle cx="262.333" cy="185.333" r="3.33333" fill="white"/>
<g filter="url(#filter3_d_345:2)">
<rect y="105" width="60" height="84" rx="6" fill="white"/>
<rect x="0.5" y="105.5" width="59" height="83" rx="5.5" stroke="#BCC3D1"/>
</g>
<circle cx="30.5" cy="182.5" r="2.5" fill="#BCC3D1"/>
<rect x="7" y="113" width="46" height="65" rx="6" fill="#0B161F"/>
<path d="M34.6625 130.278L25.9625 125.1C25.8563 125.037 25.7469 125 25.6219 125C25.2813 125 25.0031 125.281 25.0031 125.625H25V136.375H25.0031C25.0031 136.719 25.2813 137 25.6219 137C25.75 137 25.8563 136.956 25.9719 136.894L34.6625 131.722C34.8688 131.55 35 131.291 35 131C35 130.709 34.8688 130.453 34.6625 130.278Z" fill="#049289"/>
<rect x="12" y="150" width="18" height="3" rx="1.5" fill="#049289"/>
<rect x="12" y="156" width="25" height="3" rx="1.5" fill="white"/>
<rect x="12" y="168" width="29" height="3" rx="1.5" fill="white"/>
<rect x="12" y="162" width="11" height="3" rx="1.5" fill="white"/>
</g>
<defs>
<filter id="filter0_d_345:2" x="29" y="45" width="237" height="193" filterUnits="userSpaceOnUse" color-interpolation-filters="sRGB">
<feFlood flood-opacity="0" result="BackgroundImageFix"/>
<feColorMatrix in="SourceAlpha" type="matrix" values="0 0 0 0 0 0 0 0 0 0 0 0 0 0 0 0 0 0 127 0" result="hardAlpha"/>
<feOffset dx="-6" dy="6"/>
<feGaussianBlur stdDeviation="7.5"/>
<feColorMatrix type="matrix" values="0 0 0 0 0 0 0 0 0 0 0 0 0 0 0 0 0 0 0.05 0"/>
<feBlend mode="normal" in2="BackgroundImageFix" result="effect1_dropShadow_345:2"/>
<feBlend mode="normal" in="SourceGraphic" in2="effect1_dropShadow_345:2" result="shape"/>
</filter>
<filter id="filter1_d_345:2" x="30" y="223" width="246" height="19" filterUnits="userSpaceOnUse" color-interpolation-filters="sRGB">
<feFlood flood-opacity="0" result="BackgroundImageFix"/>
<feColorMatrix in="SourceAlpha" type="matrix" values="0 0 0 0 0 0 0 0 0 0 0 0 0 0 0 0 0 0 127 0" result="hardAlpha"/>
<feOffset dy="4"/>
<feGaussianBlur stdDeviation="2"/>
<feComposite in2="hardAlpha" operator="out"/>
<feColorMatrix type="matrix" values="0 0 0 0 0 0 0 0 0 0 0 0 0 0 0 0 0 0 0.1 0"/>
<feBlend mode="normal" in2="BackgroundImageFix" result="effect1_dropShadow_345:2"/>
<feBlend mode="normal" in="SourceGraphic" in2="effect1_dropShadow_345:2" result="shape"/>
</filter>
<filter id="filter2_d_345:2" x="213" y="80" width="110" height="142" filterUnits="userSpaceOnUse" color-interpolation-filters="sRGB">
<feFlood flood-opacity="0" result="BackgroundImageFix"/>
<feColorMatrix in="SourceAlpha" type="matrix" values="0 0 0 0 0 0 0 0 0 0 0 0 0 0 0 0 0 0 127 0" result="hardAlpha"/>
<feOffset dx="6" dy="6"/>
<feGaussianBlur stdDeviation="7.5"/>
<feColorMatrix type="matrix" values="0 0 0 0 0 0 0 0 0 0 0 0 0 0 0 0 0 0 0.05 0"/>
<feBlend mode="normal" in2="BackgroundImageFix" result="effect1_dropShadow_345:2"/>
<feBlend mode="normal" in="SourceGraphic" in2="effect1_dropShadow_345:2" result="shape"/>
</filter>
<filter id="filter3_d_345:2" x="-9" y="96" width="90" height="114" filterUnits="userSpaceOnUse" color-interpolation-filters="sRGB">
<feFlood flood-opacity="0" result="BackgroundImageFix"/>
<feColorMatrix in="SourceAlpha" type="matrix" values="0 0 0 0 0 0 0 0 0 0 0 0 0 0 0 0 0 0 127 0" result="hardAlpha"/>
<feOffset dx="6" dy="6"/>
<feGaussianBlur stdDeviation="7.5"/>
<feColorMatrix type="matrix" values="0 0 0 0 0 0 0 0 0 0 0 0 0 0 0 0 0 0 0.05 0"/>
<feBlend mode="normal" in2="BackgroundImageFix" result="effect1_dropShadow_345:2"/>
<feBlend mode="normal" in="SourceGraphic" in2="effect1_dropShadow_345:2" result="shape"/>
</filter>
<linearGradient id="paint0_linear_345:2" x1="242" y1="45" x2="55" y2="223" gradientUnits="userSpaceOnUse">
<stop stop-color="#049289"/>
<stop offset="1" stop-color="#102130"/>
</linearGradient>
<clipPath id="clip0_345:2">
<rect width="302" height="270" fill="white"/>
</clipPath>
</defs>
</svg>
